<svg width="151" height="35" viewBox="0 0 151 35" fill="none" xmlns="http://www.w3.org/2000/svg">
<rect x="0.0627441" width="150" height="35" rx="5" fill="#70C295"/>
<path d="M66.5549 23H65.0989C64.9355 23 64.8002 22.9603 64.6929 22.881C64.5902 22.797 64.5155 22.6943 64.4689 22.573L63.7129 20.508H59.5199L58.7639 22.573C58.7265 22.6803 58.6519 22.7783 58.5399 22.867C58.4325 22.9557 58.2995 23 58.1409 23H56.6779L60.6539 12.878H62.5789L66.5549 23ZM60.0029 19.178H63.2299L61.9979 15.811C61.9419 15.6617 61.8789 15.4867 61.8089 15.286C61.7435 15.0807 61.6782 14.859 61.6129 14.621C61.5475 14.859 61.4822 15.0807 61.4169 15.286C61.3562 15.4913 61.2955 15.671 61.2349 15.825L60.0029 19.178ZM72.5533 23C72.3293 23 72.1823 22.895 72.1123 22.685L71.9723 21.992C71.823 22.16 71.6667 22.3117 71.5033 22.447C71.34 22.5823 71.1627 22.699 70.9713 22.797C70.7847 22.895 70.5817 22.9697 70.3623 23.021C70.1477 23.077 69.9143 23.105 69.6623 23.105C69.2703 23.105 68.911 23.0233 68.5843 22.86C68.2577 22.6967 67.9753 22.461 67.7373 22.153C67.504 21.8403 67.322 21.4553 67.1913 20.998C67.0653 20.5407 67.0023 20.018 67.0023 19.43C67.0023 18.898 67.0747 18.4033 67.2193 17.946C67.364 17.4887 67.5717 17.092 67.8423 16.756C68.113 16.42 68.4373 16.1587 68.8153 15.972C69.1933 15.7807 69.618 15.685 70.0893 15.685C70.4907 15.685 70.8337 15.7503 71.1183 15.881C71.403 16.007 71.6573 16.1773 71.8813 16.392V12.598H73.6103V23H72.5533ZM70.2503 21.733C70.6097 21.733 70.9153 21.6583 71.1673 21.509C71.4193 21.3597 71.6573 21.1473 71.8813 20.872V17.652C71.6853 17.414 71.4707 17.246 71.2373 17.148C71.0087 17.05 70.7613 17.001 70.4953 17.001C70.234 17.001 69.996 17.05 69.7813 17.148C69.5713 17.246 69.3917 17.3953 69.2423 17.596C69.0977 17.792 68.9857 18.044 68.9063 18.352C68.827 18.6553 68.7873 19.0147 68.7873 19.43C68.7873 19.85 68.82 20.207 68.8853 20.501C68.9553 20.7903 69.0533 21.0283 69.1793 21.215C69.3053 21.397 69.4593 21.53 69.6413 21.614C69.8233 21.6933 70.0263 21.733 70.2503 21.733ZM80.5377 23C80.3137 23 80.1667 22.895 80.0967 22.685L79.9567 21.992C79.8074 22.16 79.651 22.3117 79.4877 22.447C79.3244 22.5823 79.147 22.699 78.9557 22.797C78.769 22.895 78.566 22.9697 78.3467 23.021C78.132 23.077 77.8987 23.105 77.6467 23.105C77.2547 23.105 76.8954 23.0233 76.5687 22.86C76.242 22.6967 75.9597 22.461 75.7217 22.153C75.4884 21.8403 75.3064 21.4553 75.1757 20.998C75.0497 20.5407 74.9867 20.018 74.9867 19.43C74.9867 18.898 75.059 18.4033 75.2037 17.946C75.3484 17.4887 75.556 17.092 75.8267 16.756C76.0974 16.42 76.4217 16.1587 76.7997 15.972C77.1777 15.7807 77.6024 15.685 78.0737 15.685C78.475 15.685 78.818 15.7503 79.1027 15.881C79.3874 16.007 79.6417 16.1773 79.8657 16.392V12.598H81.5947V23H80.5377ZM78.2347 21.733C78.594 21.733 78.8997 21.6583 79.1517 21.509C79.4037 21.3597 79.6417 21.1473 79.8657 20.872V17.652C79.6697 17.414 79.455 17.246 79.2217 17.148C78.993 17.05 78.7457 17.001 78.4797 17.001C78.2184 17.001 77.9804 17.05 77.7657 17.148C77.5557 17.246 77.376 17.3953 77.2267 17.596C77.082 17.792 76.97 18.044 76.8907 18.352C76.8114 18.6553 76.7717 19.0147 76.7717 19.43C76.7717 19.85 76.8044 20.207 76.8697 20.501C76.9397 20.7903 77.0377 21.0283 77.1637 21.215C77.2897 21.397 77.4437 21.53 77.6257 21.614C77.8077 21.6933 78.0107 21.733 78.2347 21.733ZM85.2791 12.878H86.7981C86.9614 12.878 87.0944 12.9177 87.1971 12.997C87.2998 13.0763 87.3768 13.179 87.4281 13.305L89.8081 19.479C89.8874 19.6797 89.9621 19.9013 90.0321 20.144C90.1068 20.382 90.1768 20.634 90.2421 20.9C90.3494 20.3633 90.4824 19.8897 90.6411 19.479L93.0141 13.305C93.0561 13.1977 93.1308 13.0997 93.2381 13.011C93.3454 12.9223 93.4784 12.878 93.6371 12.878H95.1561L91.0681 23H89.3671L85.2791 12.878ZM98.2212 15.706C98.6739 15.706 99.0892 15.7783 99.4672 15.923C99.8499 16.0677 100.179 16.28 100.454 16.56C100.73 16.8353 100.944 17.176 101.098 17.582C101.252 17.9833 101.329 18.443 101.329 18.961C101.329 19.0917 101.322 19.2013 101.308 19.29C101.299 19.374 101.278 19.4417 101.245 19.493C101.217 19.5397 101.178 19.5747 101.126 19.598C101.075 19.6167 101.01 19.626 100.93 19.626H96.4922C96.5436 20.3633 96.7419 20.9047 97.0872 21.25C97.4326 21.5953 97.8899 21.768 98.4592 21.768C98.7392 21.768 98.9796 21.7353 99.1802 21.67C99.3856 21.6047 99.5629 21.5323 99.7122 21.453C99.8662 21.3737 99.9992 21.3013 100.111 21.236C100.228 21.1707 100.34 21.138 100.447 21.138C100.517 21.138 100.578 21.152 100.629 21.18C100.681 21.208 100.725 21.2477 100.762 21.299L101.266 21.929C101.075 22.153 100.86 22.342 100.622 22.496C100.384 22.6453 100.135 22.7667 99.8732 22.86C99.6166 22.9487 99.3529 23.0117 99.0822 23.049C98.8162 23.0863 98.5572 23.105 98.3052 23.105C97.8059 23.105 97.3416 23.0233 96.9122 22.86C96.4829 22.692 96.1096 22.447 95.7922 22.125C95.4749 21.7983 95.2252 21.397 95.0432 20.921C94.8612 20.4403 94.7702 19.885 94.7702 19.255C94.7702 18.765 94.8496 18.3053 95.0082 17.876C95.1669 17.442 95.3932 17.0663 95.6872 16.749C95.9859 16.427 96.3476 16.1727 96.7722 15.986C97.2016 15.7993 97.6846 15.706 98.2212 15.706ZM98.2562 16.945C97.7522 16.945 97.3579 17.0873 97.0732 17.372C96.7886 17.6567 96.6066 18.0603 96.5272 18.583H99.7752C99.7752 18.359 99.7449 18.149 99.6842 17.953C99.6236 17.7523 99.5302 17.5773 99.4042 17.428C99.2782 17.2787 99.1196 17.162 98.9282 17.078C98.7369 16.9893 98.5129 16.945 98.2562 16.945ZM102.732 23V12.598H104.461V16.595C104.741 16.329 105.049 16.1143 105.385 15.951C105.721 15.7877 106.115 15.706 106.568 15.706C106.96 15.706 107.307 15.7737 107.611 15.909C107.914 16.0397 108.166 16.2263 108.367 16.469C108.572 16.707 108.726 16.994 108.829 17.33C108.936 17.6613 108.99 18.0277 108.99 18.429V23H107.261V18.429C107.261 17.9903 107.158 17.652 106.953 17.414C106.752 17.1713 106.449 17.05 106.043 17.05C105.744 17.05 105.464 17.1177 105.203 17.253C104.941 17.3883 104.694 17.5727 104.461 17.806V23H102.732ZM112.53 15.818V23H110.801V15.818H112.53ZM112.789 13.725C112.789 13.8743 112.758 14.0143 112.698 14.145C112.637 14.2757 112.555 14.39 112.453 14.488C112.355 14.586 112.238 14.6653 112.103 14.726C111.967 14.782 111.823 14.81 111.669 14.81C111.519 14.81 111.377 14.782 111.242 14.726C111.111 14.6653 110.997 14.586 110.899 14.488C110.801 14.39 110.721 14.2757 110.661 14.145C110.605 14.0143 110.577 13.8743 110.577 13.725C110.577 13.571 110.605 13.4263 110.661 13.291C110.721 13.1557 110.801 13.039 110.899 12.941C110.997 12.843 111.111 12.766 111.242 12.71C111.377 12.6493 111.519 12.619 111.669 12.619C111.823 12.619 111.967 12.6493 112.103 12.71C112.238 12.766 112.355 12.843 112.453 12.941C112.555 13.039 112.637 13.1557 112.698 13.291C112.758 13.4263 112.789 13.571 112.789 13.725ZM119.537 17.337C119.485 17.4023 119.434 17.4537 119.383 17.491C119.336 17.5283 119.266 17.547 119.173 17.547C119.084 17.547 118.998 17.5213 118.914 17.47C118.83 17.414 118.729 17.3533 118.613 17.288C118.496 17.218 118.356 17.1573 118.193 17.106C118.034 17.05 117.836 17.022 117.598 17.022C117.294 17.022 117.028 17.078 116.8 17.19C116.571 17.2973 116.38 17.4537 116.226 17.659C116.076 17.8643 115.964 18.114 115.89 18.408C115.815 18.6973 115.778 19.0263 115.778 19.395C115.778 19.7777 115.817 20.1183 115.897 20.417C115.981 20.7157 116.1 20.9677 116.254 21.173C116.408 21.3737 116.594 21.5277 116.814 21.635C117.033 21.7377 117.28 21.789 117.556 21.789C117.831 21.789 118.053 21.7563 118.221 21.691C118.393 21.621 118.538 21.5463 118.655 21.467C118.771 21.383 118.872 21.3083 118.956 21.243C119.044 21.173 119.142 21.138 119.25 21.138C119.39 21.138 119.495 21.1917 119.565 21.299L120.062 21.929C119.87 22.153 119.663 22.342 119.439 22.496C119.215 22.6453 118.981 22.7667 118.739 22.86C118.501 22.9487 118.253 23.0117 117.997 23.049C117.74 23.0863 117.486 23.105 117.234 23.105C116.79 23.105 116.373 23.0233 115.981 22.86C115.589 22.692 115.246 22.4493 114.952 22.132C114.662 21.8147 114.431 21.4273 114.259 20.97C114.091 20.508 114.007 19.983 114.007 19.395C114.007 18.8677 114.081 18.38 114.231 17.932C114.385 17.4793 114.609 17.0897 114.903 16.763C115.197 16.4317 115.561 16.1727 115.995 15.986C116.429 15.7993 116.928 15.706 117.493 15.706C118.029 15.706 118.498 15.7923 118.9 15.965C119.306 16.1377 119.67 16.385 119.992 16.707L119.537 17.337ZM123.002 12.598V23H121.273V12.598H123.002ZM127.93 15.706C128.383 15.706 128.798 15.7783 129.176 15.923C129.559 16.0677 129.888 16.28 130.163 16.56C130.439 16.8353 130.653 17.176 130.807 17.582C130.961 17.9833 131.038 18.443 131.038 18.961C131.038 19.0917 131.031 19.2013 131.017 19.29C131.008 19.374 130.987 19.4417 130.954 19.493C130.926 19.5397 130.887 19.5747 130.835 19.598C130.784 19.6167 130.719 19.626 130.639 19.626H126.201C126.253 20.3633 126.451 20.9047 126.796 21.25C127.142 21.5953 127.599 21.768 128.168 21.768C128.448 21.768 128.689 21.7353 128.889 21.67C129.095 21.6047 129.272 21.5323 129.421 21.453C129.575 21.3737 129.708 21.3013 129.82 21.236C129.937 21.1707 130.049 21.138 130.156 21.138C130.226 21.138 130.287 21.152 130.338 21.18C130.39 21.208 130.434 21.2477 130.471 21.299L130.975 21.929C130.784 22.153 130.569 22.342 130.331 22.496C130.093 22.6453 129.844 22.7667 129.582 22.86C129.326 22.9487 129.062 23.0117 128.791 23.049C128.525 23.0863 128.266 23.105 128.014 23.105C127.515 23.105 127.051 23.0233 126.621 22.86C126.192 22.692 125.819 22.447 125.501 22.125C125.184 21.7983 124.934 21.397 124.752 20.921C124.57 20.4403 124.479 19.885 124.479 19.255C124.479 18.765 124.559 18.3053 124.717 17.876C124.876 17.442 125.102 17.0663 125.396 16.749C125.695 16.427 126.057 16.1727 126.481 15.986C126.911 15.7993 127.394 15.706 127.93 15.706ZM127.965 16.945C127.461 16.945 127.067 17.0873 126.782 17.372C126.498 17.6567 126.316 18.0603 126.236 18.583H129.484C129.484 18.359 129.454 18.149 129.393 17.953C129.333 17.7523 129.239 17.5773 129.113 17.428C128.987 17.2787 128.829 17.162 128.637 17.078C128.446 16.9893 128.222 16.945 127.965 16.945Z" fill="white"/>
<path d="M42.4126 10.9347H37.0431V8H19V25.1274H22.3041C22.6734 26.7694 24.1423 28 25.8941 28C27.6459 28 29.1147 26.7694 29.484 25.1274H35.5177C35.887 26.7694 37.3559 28 39.1077 28C40.8595 28 42.3283 26.7694 42.6976 25.1274H46.5763V17.1809L42.4126 10.9347ZM25.8941 26.3842C24.7556 26.3842 23.8295 25.458 23.8295 24.3195C23.8295 23.1811 24.7556 22.2549 25.8941 22.2549C27.0325 22.2549 27.9587 23.1811 27.9587 24.3195C27.9587 25.458 27.0325 26.3842 25.8941 26.3842ZM35.4273 23.5116H29.484C29.1147 21.8698 27.6459 20.6391 25.8941 20.6391C24.1423 20.6391 22.6734 21.8698 22.3041 23.5116H20.6158V9.6158H35.4273V23.5116ZM39.1077 26.3842C37.9693 26.3842 37.0431 25.458 37.0431 24.3195C37.0431 23.1811 37.9692 22.2549 39.1077 22.2549C40.2461 22.2549 41.1723 23.1811 41.1723 24.3195C41.1723 25.458 40.2462 26.3842 39.1077 26.3842ZM44.9605 23.5116H42.6976C42.3283 21.8698 40.8595 20.6391 39.1077 20.6391C38.343 20.6391 37.6322 20.8737 37.0431 21.2745V12.5505H41.5478L44.6418 17.1921H40.4901V14.553H38.8743V18.8079H44.9605V23.5116Z" fill="white"/>
</svg>
