<svg width="12" height="20" viewBox="0 0 12 20" fill="none" xmlns="http://www.w3.org/2000/svg">
<path d="M10.8792 19.6287C11.1266 19.3815 11.2502 19.0885 11.2502 18.7498L11.2502 1.25009C11.2502 0.911336 11.1266 0.61848 10.8792 0.371047C10.6315 0.123614 10.3386 0 10.0001 0C9.6616 0 9.36874 0.123614 9.12124 0.371047L0.371333 9.12095C0.1239 9.36866 1.23978e-05 9.66152 1.23978e-05 10C1.23978e-05 10.3385 0.1239 10.6316 0.371333 10.8788L9.12131 19.6287C9.36874 19.8759 9.6616 20 10.0002 20C10.3386 20 10.6315 19.8759 10.8792 19.6287Z" fill="#7A827F"/>
</svg>
