<svg width="100" height="20" viewBox="0 0 100 20" fill="none" xmlns="http://www.w3.org/2000/svg">
<rect width="100" height="20" rx="5" fill="#E9BF6F"/>
<path d="M29.0178 16H28.2408C28.0775 16 27.9492 15.9767 27.8558 15.93C27.7625 15.8787 27.6925 15.7783 27.6458 15.629L27.4918 15.118C27.3098 15.2813 27.1302 15.426 26.9528 15.552C26.7802 15.6733 26.6005 15.776 26.4138 15.86C26.2272 15.944 26.0288 16.007 25.8188 16.049C25.6088 16.091 25.3755 16.112 25.1188 16.112C24.8155 16.112 24.5355 16.0723 24.2788 15.993C24.0222 15.909 23.8005 15.7853 23.6138 15.622C23.4318 15.4587 23.2895 15.2557 23.1868 15.013C23.0842 14.7703 23.0328 14.488 23.0328 14.166C23.0328 13.8953 23.1028 13.6293 23.2428 13.368C23.3875 13.102 23.6255 12.864 23.9568 12.654C24.2882 12.4393 24.7292 12.262 25.2798 12.122C25.8305 11.982 26.5142 11.9027 27.3308 11.884V11.464C27.3308 10.9833 27.2282 10.6287 27.0228 10.4C26.8222 10.1667 26.5282 10.05 26.1408 10.05C25.8608 10.05 25.6275 10.0827 25.4408 10.148C25.2542 10.2133 25.0908 10.288 24.9508 10.372C24.8155 10.4513 24.6895 10.5237 24.5728 10.589C24.4562 10.6543 24.3278 10.687 24.1878 10.687C24.0712 10.687 23.9708 10.6567 23.8868 10.596C23.8028 10.5353 23.7352 10.4607 23.6838 10.372L23.3688 9.819C24.1948 9.063 25.1912 8.685 26.3578 8.685C26.7778 8.685 27.1512 8.755 27.4778 8.895C27.8092 9.03033 28.0892 9.22167 28.3178 9.469C28.5465 9.71167 28.7192 10.0033 28.8358 10.344C28.9572 10.6847 29.0178 11.058 29.0178 11.464V16ZM25.6578 14.922C25.8352 14.922 25.9985 14.9057 26.1478 14.873C26.2972 14.8403 26.4372 14.7913 26.5678 14.726C26.7032 14.6607 26.8315 14.5813 26.9528 14.488C27.0788 14.39 27.2048 14.2757 27.3308 14.145V12.934C26.8268 12.9573 26.4045 13.0017 26.0638 13.067C25.7278 13.1277 25.4572 13.207 25.2518 13.305C25.0465 13.403 24.8995 13.5173 24.8108 13.648C24.7268 13.7787 24.6848 13.921 24.6848 14.075C24.6848 14.3783 24.7735 14.5953 24.9508 14.726C25.1328 14.8567 25.3685 14.922 25.6578 14.922ZM34.0699 16H32.5019L29.6459 8.818H31.0809C31.2069 8.818 31.3119 8.84833 31.3959 8.909C31.4845 8.96967 31.5452 9.04667 31.5779 9.14L32.9639 12.976C33.0432 13.2 33.1085 13.4193 33.1599 13.634C33.2159 13.8487 33.2649 14.0633 33.3069 14.278C33.3489 14.0633 33.3955 13.8487 33.4469 13.634C33.5029 13.4193 33.5729 13.2 33.6569 12.976L35.0779 9.14C35.1105 9.04667 35.1689 8.96967 35.2529 8.909C35.3369 8.84833 35.4372 8.818 35.5539 8.818H36.9189L34.0699 16ZM43.5647 16H42.7877C42.6244 16 42.496 15.9767 42.4027 15.93C42.3094 15.8787 42.2394 15.7783 42.1927 15.629L42.0387 15.118C41.8567 15.2813 41.677 15.426 41.4997 15.552C41.327 15.6733 41.1474 15.776 40.9607 15.86C40.774 15.944 40.5757 16.007 40.3657 16.049C40.1557 16.091 39.9224 16.112 39.6657 16.112C39.3624 16.112 39.0824 16.0723 38.8257 15.993C38.569 15.909 38.3474 15.7853 38.1607 15.622C37.9787 15.4587 37.8364 15.2557 37.7337 15.013C37.631 14.7703 37.5797 14.488 37.5797 14.166C37.5797 13.8953 37.6497 13.6293 37.7897 13.368C37.9344 13.102 38.1724 12.864 38.5037 12.654C38.835 12.4393 39.276 12.262 39.8267 12.122C40.3774 11.982 41.061 11.9027 41.8777 11.884V11.464C41.8777 10.9833 41.775 10.6287 41.5697 10.4C41.369 10.1667 41.075 10.05 40.6877 10.05C40.4077 10.05 40.1744 10.0827 39.9877 10.148C39.801 10.2133 39.6377 10.288 39.4977 10.372C39.3624 10.4513 39.2364 10.5237 39.1197 10.589C39.003 10.6543 38.8747 10.687 38.7347 10.687C38.618 10.687 38.5177 10.6567 38.4337 10.596C38.3497 10.5353 38.282 10.4607 38.2307 10.372L37.9157 9.819C38.7417 9.063 39.738 8.685 40.9047 8.685C41.3247 8.685 41.698 8.755 42.0247 8.895C42.356 9.03033 42.636 9.22167 42.8647 9.469C43.0934 9.71167 43.266 10.0033 43.3827 10.344C43.504 10.6847 43.5647 11.058 43.5647 11.464V16ZM40.2047 14.922C40.382 14.922 40.5454 14.9057 40.6947 14.873C40.844 14.8403 40.984 14.7913 41.1147 14.726C41.25 14.6607 41.3784 14.5813 41.4997 14.488C41.6257 14.39 41.7517 14.2757 41.8777 14.145V12.934C41.3737 12.9573 40.9514 13.0017 40.6107 13.067C40.2747 13.1277 40.004 13.207 39.7987 13.305C39.5934 13.403 39.4464 13.5173 39.3577 13.648C39.2737 13.7787 39.2317 13.921 39.2317 14.075C39.2317 14.3783 39.3204 14.5953 39.4977 14.726C39.6797 14.8567 39.9154 14.922 40.2047 14.922ZM47.1058 8.818V16H45.3768V8.818H47.1058ZM47.3648 6.725C47.3648 6.87433 47.3345 7.01433 47.2738 7.145C47.2132 7.27567 47.1315 7.39 47.0288 7.488C46.9308 7.586 46.8142 7.66533 46.6788 7.726C46.5435 7.782 46.3988 7.81 46.2448 7.81C46.0955 7.81 45.9532 7.782 45.8178 7.726C45.6872 7.66533 45.5728 7.586 45.4748 7.488C45.3768 7.39 45.2975 7.27567 45.2368 7.145C45.1808 7.01433 45.1528 6.87433 45.1528 6.725C45.1528 6.571 45.1808 6.42633 45.2368 6.291C45.2975 6.15567 45.3768 6.039 45.4748 5.941C45.5728 5.843 45.6872 5.766 45.8178 5.71C45.9532 5.64933 46.0955 5.619 46.2448 5.619C46.3988 5.619 46.5435 5.64933 46.6788 5.71C46.8142 5.766 46.9308 5.843 47.0288 5.941C47.1315 6.039 47.2132 6.15567 47.2738 6.291C47.3345 6.42633 47.3648 6.571 47.3648 6.725ZM50.9066 5.598V16H49.1776V5.598H50.9066ZM58.4944 16H57.7174C57.554 16 57.4257 15.9767 57.3324 15.93C57.239 15.8787 57.169 15.7783 57.1224 15.629L56.9684 15.118C56.7864 15.2813 56.6067 15.426 56.4294 15.552C56.2567 15.6733 56.077 15.776 55.8904 15.86C55.7037 15.944 55.5054 16.007 55.2954 16.049C55.0854 16.091 54.852 16.112 54.5954 16.112C54.292 16.112 54.012 16.0723 53.7554 15.993C53.4987 15.909 53.277 15.7853 53.0904 15.622C52.9084 15.4587 52.766 15.2557 52.6634 15.013C52.5607 14.7703 52.5094 14.488 52.5094 14.166C52.5094 13.8953 52.5794 13.6293 52.7194 13.368C52.864 13.102 53.102 12.864 53.4334 12.654C53.7647 12.4393 54.2057 12.262 54.7564 12.122C55.307 11.982 55.9907 11.9027 56.8074 11.884V11.464C56.8074 10.9833 56.7047 10.6287 56.4994 10.4C56.2987 10.1667 56.0047 10.05 55.6174 10.05C55.3374 10.05 55.104 10.0827 54.9174 10.148C54.7307 10.2133 54.5674 10.288 54.4274 10.372C54.292 10.4513 54.166 10.5237 54.0494 10.589C53.9327 10.6543 53.8044 10.687 53.6644 10.687C53.5477 10.687 53.4474 10.6567 53.3634 10.596C53.2794 10.5353 53.2117 10.4607 53.1604 10.372L52.8454 9.819C53.6714 9.063 54.6677 8.685 55.8344 8.685C56.2544 8.685 56.6277 8.755 56.9544 8.895C57.2857 9.03033 57.5657 9.22167 57.7944 9.469C58.023 9.71167 58.1957 10.0033 58.3124 10.344C58.4337 10.6847 58.4944 11.058 58.4944 11.464V16ZM55.1344 14.922C55.3117 14.922 55.475 14.9057 55.6244 14.873C55.7737 14.8403 55.9137 14.7913 56.0444 14.726C56.1797 14.6607 56.308 14.5813 56.4294 14.488C56.5554 14.39 56.6814 14.2757 56.8074 14.145V12.934C56.3034 12.9573 55.881 13.0017 55.5404 13.067C55.2044 13.1277 54.9337 13.207 54.7284 13.305C54.523 13.403 54.376 13.5173 54.2874 13.648C54.2034 13.7787 54.1614 13.921 54.1614 14.075C54.1614 14.3783 54.25 14.5953 54.4274 14.726C54.6094 14.8567 54.845 14.922 55.1344 14.922ZM60.2155 16V5.598H61.9445V9.7C62.2292 9.39667 62.5512 9.15633 62.9105 8.979C63.2698 8.797 63.6898 8.706 64.1705 8.706C64.5625 8.706 64.9195 8.78767 65.2415 8.951C65.5682 9.10967 65.8482 9.343 66.0815 9.651C66.3195 9.959 66.5015 10.3393 66.6275 10.792C66.7582 11.2447 66.8235 11.765 66.8235 12.353C66.8235 12.8897 66.7512 13.3867 66.6065 13.844C66.4618 14.3013 66.2542 14.698 65.9835 15.034C65.7175 15.37 65.3932 15.6337 65.0105 15.825C64.6325 16.0117 64.2078 16.105 63.7365 16.105C63.5172 16.105 63.3165 16.0817 63.1345 16.035C62.9525 15.993 62.7868 15.9323 62.6375 15.853C62.4882 15.7737 62.3482 15.678 62.2175 15.566C62.0915 15.4493 61.9702 15.321 61.8535 15.181L61.7765 15.664C61.7485 15.7853 61.6995 15.8717 61.6295 15.923C61.5642 15.9743 61.4732 16 61.3565 16H60.2155ZM63.5755 10.05C63.2162 10.05 62.9082 10.127 62.6515 10.281C62.3995 10.4303 62.1638 10.6427 61.9445 10.918V14.138C62.1405 14.3807 62.3528 14.551 62.5815 14.649C62.8148 14.7423 63.0668 14.789 63.3375 14.789C63.5988 14.789 63.8345 14.74 64.0445 14.642C64.2545 14.544 64.4318 14.3947 64.5765 14.194C64.7258 13.9933 64.8402 13.7413 64.9195 13.438C64.9988 13.13 65.0385 12.7683 65.0385 12.353C65.0385 11.933 65.0035 11.5783 64.9335 11.289C64.8682 10.995 64.7725 10.757 64.6465 10.575C64.5205 10.393 64.3665 10.26 64.1845 10.176C64.0072 10.092 63.8042 10.05 63.5755 10.05ZM70.0199 5.598V16H68.2909V5.598H70.0199ZM74.9477 8.706C75.4003 8.706 75.8157 8.77833 76.1937 8.923C76.5763 9.06767 76.9053 9.28 77.1807 9.56C77.456 9.83533 77.6707 10.176 77.8247 10.582C77.9787 10.9833 78.0557 11.443 78.0557 11.961C78.0557 12.0917 78.0487 12.2013 78.0347 12.29C78.0253 12.374 78.0043 12.4417 77.9717 12.493C77.9437 12.5397 77.904 12.5747 77.8527 12.598C77.8013 12.6167 77.736 12.626 77.6567 12.626H73.2187C73.27 13.3633 73.4683 13.9047 73.8137 14.25C74.159 14.5953 74.6163 14.768 75.1857 14.768C75.4657 14.768 75.706 14.7353 75.9067 14.67C76.112 14.6047 76.2893 14.5323 76.4387 14.453C76.5927 14.3737 76.7257 14.3013 76.8377 14.236C76.9543 14.1707 77.0663 14.138 77.1737 14.138C77.2437 14.138 77.3043 14.152 77.3557 14.18C77.407 14.208 77.4513 14.2477 77.4887 14.299L77.9927 14.929C77.8013 15.153 77.5867 15.342 77.3487 15.496C77.1107 15.6453 76.861 15.7667 76.5997 15.86C76.343 15.9487 76.0793 16.0117 75.8087 16.049C75.5427 16.0863 75.2837 16.105 75.0317 16.105C74.5323 16.105 74.068 16.0233 73.6387 15.86C73.2093 15.692 72.836 15.447 72.5187 15.125C72.2013 14.7983 71.9517 14.397 71.7697 13.921C71.5877 13.4403 71.4967 12.885 71.4967 12.255C71.4967 11.765 71.576 11.3053 71.7347 10.876C71.8933 10.442 72.1197 10.0663 72.4137 9.749C72.7123 9.427 73.074 9.17267 73.4987 8.986C73.928 8.79933 74.411 8.706 74.9477 8.706ZM74.9827 9.945C74.4787 9.945 74.0843 10.0873 73.7997 10.372C73.515 10.6567 73.333 11.0603 73.2537 11.583H76.5017C76.5017 11.359 76.4713 11.149 76.4107 10.953C76.35 10.7523 76.2567 10.5773 76.1307 10.428C76.0047 10.2787 75.846 10.162 75.6547 10.078C75.4633 9.98933 75.2393 9.945 74.9827 9.945Z" fill="white"/>
</svg>
