<svg width="31" height="12" viewBox="0 0 31 12" fill="none" xmlns="http://www.w3.org/2000/svg">
<path d="M6.25841 5.169C6.22108 5.22033 6.18375 5.26 6.14641 5.288C6.10908 5.316 6.05541 5.33 5.98541 5.33C5.91541 5.33 5.83841 5.302 5.75441 5.246C5.67508 5.18533 5.57241 5.12 5.44641 5.05C5.32041 4.98 5.16641 4.917 4.98441 4.861C4.80708 4.80033 4.58775 4.77 4.32641 4.77C3.98108 4.77 3.67541 4.833 3.40941 4.959C3.14341 5.08033 2.91941 5.25767 2.73741 5.491C2.56008 5.72433 2.42475 6.00667 2.33141 6.338C2.24275 6.66933 2.19841 7.04033 2.19841 7.451C2.19841 7.88033 2.24741 8.263 2.34541 8.599C2.44341 8.93033 2.58108 9.21033 2.75841 9.439C2.93575 9.663 3.15041 9.83567 3.40241 9.957C3.65908 10.0737 3.94608 10.132 4.26341 10.132C4.56675 10.132 4.81641 10.097 5.01241 10.027C5.20841 9.95233 5.37175 9.87067 5.50241 9.782C5.63308 9.69333 5.74041 9.614 5.82441 9.544C5.90841 9.46933 5.99241 9.432 6.07641 9.432C6.18375 9.432 6.26308 9.47167 6.31441 9.551L6.66441 10.006C6.35641 10.384 5.97141 10.6617 5.50941 10.839C5.04741 11.0117 4.55975 11.098 4.04641 11.098C3.60308 11.098 3.19008 11.0163 2.80741 10.853C2.42941 10.6897 2.10041 10.454 1.82041 10.146C1.54041 9.83333 1.31875 9.45067 1.15541 8.998C0.996747 8.54533 0.917414 8.02967 0.917414 7.451C0.917414 6.92367 0.989747 6.436 1.13441 5.988C1.28375 5.54 1.49841 5.155 1.77841 4.833C2.06308 4.50633 2.41308 4.252 2.82841 4.07C3.24375 3.888 3.71975 3.797 4.25641 3.797C4.75108 3.797 5.18975 3.87867 5.57241 4.042C5.95508 4.20067 6.29341 4.427 6.58741 4.721L6.25841 5.169ZM9.34257 0.689V11H8.09657V0.689H9.34257ZM14.3456 3.797C14.7703 3.797 15.1623 3.86933 15.5216 4.014C15.8809 4.154 16.1913 4.35933 16.4526 4.63C16.7139 4.896 16.9169 5.22733 17.0616 5.624C17.2109 6.016 17.2856 6.464 17.2856 6.968C17.2856 7.164 17.2646 7.29467 17.2226 7.36C17.1806 7.42533 17.1013 7.458 16.9846 7.458H12.2666C12.2759 7.906 12.3366 8.29567 12.4486 8.627C12.5606 8.95833 12.7146 9.236 12.9106 9.46C13.1066 9.67933 13.3399 9.845 13.6106 9.957C13.8813 10.0643 14.1846 10.118 14.5206 10.118C14.8333 10.118 15.1016 10.083 15.3256 10.013C15.5543 9.93833 15.7503 9.859 15.9136 9.775C16.0769 9.691 16.2123 9.614 16.3196 9.544C16.4316 9.46933 16.5273 9.432 16.6066 9.432C16.7093 9.432 16.7886 9.47167 16.8446 9.551L17.1946 10.006C17.0406 10.1927 16.8563 10.356 16.6416 10.496C16.4269 10.6313 16.1959 10.7433 15.9486 10.832C15.7059 10.9207 15.4539 10.986 15.1926 11.028C14.9313 11.0747 14.6723 11.098 14.4156 11.098C13.9256 11.098 13.4729 11.0163 13.0576 10.853C12.6469 10.685 12.2899 10.4423 11.9866 10.125C11.6879 9.803 11.4546 9.40633 11.2866 8.935C11.1186 8.46367 11.0346 7.92233 11.0346 7.311C11.0346 6.81633 11.1093 6.35433 11.2586 5.925C11.4126 5.49567 11.6319 5.12467 11.9166 4.812C12.2013 4.49467 12.5489 4.24733 12.9596 4.07C13.3703 3.888 13.8323 3.797 14.3456 3.797ZM14.3736 4.714C13.7716 4.714 13.2979 4.889 12.9526 5.239C12.6073 5.58433 12.3926 6.065 12.3086 6.681H16.1656C16.1656 6.39167 16.1259 6.128 16.0466 5.89C15.9673 5.64733 15.8506 5.43967 15.6966 5.267C15.5426 5.08967 15.3536 4.95433 15.1296 4.861C14.9103 4.763 14.6583 4.714 14.3736 4.714ZM24.0884 11H23.5354C23.4141 11 23.3161 10.9813 23.2414 10.944C23.1667 10.9067 23.1177 10.8273 23.0944 10.706L22.9544 10.048C22.7677 10.216 22.5857 10.3677 22.4084 10.503C22.2311 10.6337 22.0444 10.7457 21.8484 10.839C21.6524 10.9277 21.4424 10.9953 21.2184 11.042C20.9991 11.0887 20.7541 11.112 20.4834 11.112C20.2081 11.112 19.9491 11.0747 19.7064 11C19.4684 10.9207 19.2607 10.804 19.0834 10.65C18.9061 10.496 18.7637 10.3023 18.6564 10.069C18.5537 9.831 18.5024 9.551 18.5024 9.229C18.5024 8.949 18.5794 8.68067 18.7334 8.424C18.8874 8.16267 19.1347 7.93167 19.4754 7.731C19.8207 7.53033 20.2711 7.367 20.8264 7.241C21.3817 7.11033 22.0607 7.03567 22.8634 7.017V6.464C22.8634 5.91333 22.7444 5.498 22.5064 5.218C22.2731 4.93333 21.9254 4.791 21.4634 4.791C21.1601 4.791 20.9034 4.83067 20.6934 4.91C20.4881 4.98467 20.3084 5.071 20.1544 5.169C20.0051 5.26233 19.8744 5.34867 19.7624 5.428C19.6551 5.50267 19.5477 5.54 19.4404 5.54C19.3564 5.54 19.2817 5.519 19.2164 5.477C19.1557 5.43033 19.1067 5.37433 19.0694 5.309L18.8454 4.91C19.2374 4.532 19.6597 4.24967 20.1124 4.063C20.5651 3.87633 21.0667 3.783 21.6174 3.783C22.0141 3.783 22.3664 3.84833 22.6744 3.979C22.9824 4.10967 23.2414 4.29167 23.4514 4.525C23.6614 4.75833 23.8201 5.04067 23.9274 5.372C24.0347 5.70333 24.0884 6.06733 24.0884 6.464V11ZM20.8544 10.237C21.0737 10.237 21.2744 10.216 21.4564 10.174C21.6384 10.1273 21.8087 10.0643 21.9674 9.985C22.1307 9.901 22.2847 9.80067 22.4294 9.684C22.5787 9.56733 22.7234 9.43433 22.8634 9.285V7.808C22.2894 7.82667 21.8017 7.87333 21.4004 7.948C20.9991 8.018 20.6724 8.11133 20.4204 8.228C20.1684 8.34467 19.9841 8.48233 19.8674 8.641C19.7554 8.79967 19.6994 8.977 19.6994 9.173C19.6994 9.35967 19.7297 9.52067 19.7904 9.656C19.8511 9.79133 19.9327 9.90333 20.0354 9.992C20.1381 10.076 20.2594 10.139 20.3994 10.181C20.5394 10.2183 20.6911 10.237 20.8544 10.237ZM25.9761 11V3.909H26.6901C26.8254 3.909 26.9188 3.93467 26.9701 3.986C27.0214 4.03733 27.0564 4.126 27.0751 4.252L27.1591 5.358C27.4018 4.86333 27.7004 4.47833 28.0551 4.203C28.4144 3.923 28.8344 3.783 29.3151 3.783C29.5111 3.783 29.6884 3.80633 29.8471 3.853C30.0058 3.895 30.1528 3.95567 30.2881 4.035L30.1271 4.966C30.0944 5.08267 30.0221 5.141 29.9101 5.141C29.8448 5.141 29.7444 5.12 29.6091 5.078C29.4738 5.03133 29.2848 5.008 29.0421 5.008C28.6081 5.008 28.2441 5.134 27.9501 5.386C27.6608 5.638 27.4181 6.00433 27.2221 6.485V11H25.9761Z" fill="#7A827F"/>
</svg>
