<svg width="25" height="15" viewBox="0 0 25 15" fill="none" xmlns="http://www.w3.org/2000/svg">
<path d="M23.292 8.44654C23.356 8.05276 23.3904 7.65406 23.3904 7.26028C23.3904 3.25851 20.1319 0 16.1301 0C13.4869 0 11.1045 1.40283 9.81491 3.69167C9.14057 3.38649 8.40224 3.22898 7.65898 3.22898C4.87792 3.22898 2.59401 5.4046 2.42666 8.17089C1.02382 8.53021 0 9.81491 0 11.2916C0 13.0685 1.44713 14.5156 3.22406 14.5156H21.7759C23.5528 14.5156 25 13.0685 25 11.2916C25.0049 10.0856 24.3453 9.00275 23.292 8.44654ZM21.7808 13.7133H3.22406C1.89013 13.7133 0.802322 12.6255 0.802322 11.2916C0.802322 8.98798 3.22406 8.82063 3.22406 8.82063V8.47115C3.22406 6.0248 5.21264 4.03622 7.65898 4.03622C9.10611 4.03622 10.1595 4.7844 10.1595 4.7844C10.1595 4.7844 11.8281 0.807245 16.1252 0.807245C19.684 0.807245 22.5782 3.70151 22.5782 7.26028C22.5782 8.32348 22.3715 8.92399 22.3715 8.92399C22.3715 8.92399 24.1927 9.39652 24.1927 11.2916C24.1977 12.6255 23.1148 13.7133 21.7808 13.7133Z" fill="#3A423E"/>
<path d="M16.1299 2.01825V2.82549C18.5762 2.82549 20.5648 4.81407 20.5648 7.26042H21.3721C21.377 4.37107 19.0242 2.01825 16.1299 2.01825Z" fill="#3A423E"/>
</svg>
