<svg width="100" height="20" viewBox="0 0 100 20" fill="none" xmlns="http://www.w3.org/2000/svg">
<rect width="100" height="20" rx="5" fill="#70C295"/>
<path d="M32.765 7.818V15H31.036V7.818H32.765ZM33.024 5.725C33.024 5.87433 32.9937 6.01433 32.933 6.145C32.8723 6.27567 32.7907 6.39 32.688 6.488C32.59 6.586 32.4733 6.66533 32.338 6.726C32.2027 6.782 32.058 6.81 31.904 6.81C31.7547 6.81 31.6123 6.782 31.477 6.726C31.3463 6.66533 31.232 6.586 31.134 6.488C31.036 6.39 30.9567 6.27567 30.896 6.145C30.84 6.01433 30.812 5.87433 30.812 5.725C30.812 5.571 30.84 5.42633 30.896 5.291C30.9567 5.15567 31.036 5.039 31.134 4.941C31.232 4.843 31.3463 4.766 31.477 4.71C31.6123 4.64933 31.7547 4.619 31.904 4.619C32.058 4.619 32.2027 4.64933 32.338 4.71C32.4733 4.766 32.59 4.843 32.688 4.941C32.7907 5.039 32.8723 5.15567 32.933 5.291C32.9937 5.42633 33.024 5.571 33.024 5.725ZM34.7248 15V7.818H35.7818C36.0058 7.818 36.1528 7.923 36.2228 8.133L36.3418 8.7C36.4864 8.55067 36.6381 8.41533 36.7968 8.294C36.9601 8.17267 37.1304 8.06767 37.3078 7.979C37.4898 7.89033 37.6834 7.82267 37.8888 7.776C38.0941 7.72933 38.3181 7.706 38.5608 7.706C38.9528 7.706 39.3004 7.77367 39.6038 7.909C39.9071 8.03967 40.1591 8.22633 40.3598 8.469C40.5651 8.707 40.7191 8.994 40.8218 9.33C40.9291 9.66133 40.9828 10.0277 40.9828 10.429V15H39.2538V10.429C39.2538 9.99033 39.1511 9.652 38.9458 9.414C38.7451 9.17133 38.4418 9.05 38.0358 9.05C37.7371 9.05 37.4571 9.11767 37.1958 9.253C36.9344 9.38833 36.6871 9.57267 36.4538 9.806V15H34.7248ZM42.4578 10.051H46.0838V11.493H42.4578V10.051ZM49.2951 7.818V12.382C49.2951 12.8207 49.3954 13.1613 49.5961 13.404C49.8014 13.642 50.1071 13.761 50.5131 13.761C50.8117 13.761 51.0917 13.6957 51.3531 13.565C51.6144 13.4297 51.8617 13.2453 52.0951 13.012V7.818H53.8241V15H52.7671C52.5431 15 52.3961 14.895 52.3261 14.685L52.2071 14.111C52.0577 14.2603 51.9037 14.398 51.7451 14.524C51.5864 14.6453 51.4161 14.7503 51.2341 14.839C51.0567 14.923 50.8631 14.9883 50.6531 15.035C50.4477 15.0863 50.2261 15.112 49.9881 15.112C49.5961 15.112 49.2484 15.0467 48.9451 14.916C48.6464 14.7807 48.3944 14.5917 48.1891 14.349C47.9837 14.1063 47.8274 13.8193 47.7201 13.488C47.6174 13.152 47.5661 12.7833 47.5661 12.382V7.818H49.2951ZM59.9331 9.218C59.8864 9.29267 59.8374 9.34633 59.7861 9.379C59.7348 9.407 59.6694 9.421 59.5901 9.421C59.5061 9.421 59.4151 9.39767 59.3171 9.351C59.2238 9.30433 59.1141 9.253 58.9881 9.197C58.8621 9.13633 58.7174 9.08267 58.5541 9.036C58.3954 8.98933 58.2064 8.966 57.9871 8.966C57.6464 8.966 57.3781 9.03833 57.1821 9.183C56.9861 9.32767 56.8881 9.51667 56.8881 9.75C56.8881 9.904 56.9371 10.0347 57.0351 10.142C57.1378 10.2447 57.2708 10.3357 57.4341 10.415C57.6021 10.4943 57.7911 10.5667 58.0011 10.632C58.2111 10.6927 58.4258 10.7603 58.6451 10.835C58.8644 10.9097 59.0791 10.996 59.2891 11.094C59.4991 11.1873 59.6858 11.3087 59.8491 11.458C60.0171 11.6027 60.1501 11.7777 60.2481 11.983C60.3508 12.1883 60.4021 12.4357 60.4021 12.725C60.4021 13.0703 60.3391 13.39 60.2131 13.684C60.0871 13.9733 59.9028 14.2253 59.6601 14.44C59.4174 14.65 59.1164 14.8157 58.7571 14.937C58.4024 15.0537 57.9941 15.112 57.5321 15.112C57.2848 15.112 57.0421 15.0887 56.8041 15.042C56.5708 15 56.3444 14.9393 56.1251 14.86C55.9104 14.7807 55.7098 14.6873 55.5231 14.58C55.3411 14.4727 55.1801 14.356 55.0401 14.23L55.4391 13.572C55.4904 13.4927 55.5511 13.432 55.6211 13.39C55.6911 13.348 55.7798 13.327 55.8871 13.327C55.9944 13.327 56.0948 13.3573 56.1881 13.418C56.2861 13.4787 56.3981 13.544 56.5241 13.614C56.6501 13.684 56.7971 13.7493 56.9651 13.81C57.1378 13.8707 57.3548 13.901 57.6161 13.901C57.8214 13.901 57.9964 13.8777 58.1411 13.831C58.2904 13.7797 58.4118 13.7143 58.5051 13.635C58.6031 13.5557 58.6731 13.4647 58.7151 13.362C58.7618 13.2547 58.7851 13.145 58.7851 13.033C58.7851 12.865 58.7338 12.7273 58.6311 12.62C58.5331 12.5127 58.4001 12.4193 58.2321 12.34C58.0688 12.2607 57.8798 12.1907 57.6651 12.13C57.4551 12.0647 57.2381 11.9947 57.0141 11.92C56.7948 11.8453 56.5778 11.759 56.3631 11.661C56.1531 11.5583 55.9641 11.43 55.7961 11.276C55.6328 11.122 55.4998 10.933 55.3971 10.709C55.2991 10.485 55.2501 10.2143 55.2501 9.897C55.2501 9.603 55.3084 9.323 55.4251 9.057C55.5418 8.791 55.7121 8.56 55.9361 8.364C56.1648 8.16333 56.4471 8.00467 56.7831 7.888C57.1238 7.76667 57.5158 7.706 57.9591 7.706C58.4538 7.706 58.9041 7.78767 59.3101 7.951C59.7161 8.11433 60.0544 8.329 60.3251 8.595L59.9331 9.218ZM64.7494 7.706C65.2021 7.706 65.6174 7.77833 65.9954 7.923C66.3781 8.06767 66.7071 8.28 66.9824 8.56C67.2578 8.83533 67.4724 9.176 67.6264 9.582C67.7804 9.98333 67.8574 10.443 67.8574 10.961C67.8574 11.0917 67.8504 11.2013 67.8364 11.29C67.8271 11.374 67.8061 11.4417 67.7734 11.493C67.7454 11.5397 67.7058 11.5747 67.6544 11.598C67.6031 11.6167 67.5378 11.626 67.4584 11.626H63.0204C63.0718 12.3633 63.2701 12.9047 63.6154 13.25C63.9608 13.5953 64.4181 13.768 64.9874 13.768C65.2674 13.768 65.5078 13.7353 65.7084 13.67C65.9138 13.6047 66.0911 13.5323 66.2404 13.453C66.3944 13.3737 66.5274 13.3013 66.6394 13.236C66.7561 13.1707 66.8681 13.138 66.9754 13.138C67.0454 13.138 67.1061 13.152 67.1574 13.18C67.2088 13.208 67.2531 13.2477 67.2904 13.299L67.7944 13.929C67.6031 14.153 67.3884 14.342 67.1504 14.496C66.9124 14.6453 66.6628 14.7667 66.4014 14.86C66.1448 14.9487 65.8811 15.0117 65.6104 15.049C65.3444 15.0863 65.0854 15.105 64.8334 15.105C64.3341 15.105 63.8698 15.0233 63.4404 14.86C63.0111 14.692 62.6378 14.447 62.3204 14.125C62.0031 13.7983 61.7534 13.397 61.5714 12.921C61.3894 12.4403 61.2984 11.885 61.2984 11.255C61.2984 10.765 61.3778 10.3053 61.5364 9.876C61.6951 9.442 61.9214 9.06633 62.2154 8.749C62.5141 8.427 62.8758 8.17267 63.3004 7.986C63.7298 7.79933 64.2128 7.706 64.7494 7.706ZM64.7844 8.945C64.2804 8.945 63.8861 9.08733 63.6014 9.372C63.3168 9.65667 63.1348 10.0603 63.0554 10.583H66.3034C66.3034 10.359 66.2731 10.149 66.2124 9.953C66.1518 9.75233 66.0584 9.57733 65.9324 9.428C65.8064 9.27867 65.6478 9.162 65.4564 9.078C65.2651 8.98933 65.0411 8.945 64.7844 8.945Z" fill="white"/>
</svg>
