<svg width="100" height="20" viewBox="0 0 100 20" fill="none" xmlns="http://www.w3.org/2000/svg">
<rect width="100" height="20" rx="5" fill="#D68080"/>
<path d="M10.0017 7.706C10.5384 7.706 11.0237 7.79233 11.4577 7.965C11.8964 8.13767 12.2697 8.38267 12.5777 8.7C12.8857 9.01733 13.1237 9.40467 13.2917 9.862C13.4597 10.3193 13.5437 10.8303 13.5437 11.395C13.5437 11.9643 13.4597 12.4777 13.2917 12.935C13.1237 13.3923 12.8857 13.782 12.5777 14.104C12.2697 14.426 11.8964 14.6733 11.4577 14.846C11.0237 15.0187 10.5384 15.105 10.0017 15.105C9.46505 15.105 8.97739 15.0187 8.53872 14.846C8.10005 14.6733 7.72439 14.426 7.41172 14.104C7.10372 13.782 6.86339 13.3923 6.69072 12.935C6.52272 12.4777 6.43872 11.9643 6.43872 11.395C6.43872 10.8303 6.52272 10.3193 6.69072 9.862C6.86339 9.40467 7.10372 9.01733 7.41172 8.7C7.72439 8.38267 8.10005 8.13767 8.53872 7.965C8.97739 7.79233 9.46505 7.706 10.0017 7.706ZM10.0017 13.775C10.5991 13.775 11.0401 13.5743 11.3247 13.173C11.6141 12.7717 11.7587 12.1837 11.7587 11.409C11.7587 10.6343 11.6141 10.044 11.3247 9.638C11.0401 9.232 10.5991 9.029 10.0017 9.029C9.39505 9.029 8.94705 9.23433 8.65772 9.645C8.36839 10.051 8.22372 10.639 8.22372 11.409C8.22372 12.179 8.36839 12.767 8.65772 13.173C8.94705 13.5743 9.39505 13.775 10.0017 13.775ZM16.4748 7.818V12.382C16.4748 12.8207 16.5751 13.1613 16.7758 13.404C16.9811 13.642 17.2868 13.761 17.6928 13.761C17.9914 13.761 18.2714 13.6957 18.5328 13.565C18.7941 13.4297 19.0414 13.2453 19.2748 13.012V7.818H21.0037V15H19.9468C19.7228 15 19.5758 14.895 19.5058 14.685L19.3868 14.111C19.2374 14.2603 19.0834 14.398 18.9248 14.524C18.7661 14.6453 18.5958 14.7503 18.4138 14.839C18.2364 14.923 18.0428 14.9883 17.8328 15.035C17.6274 15.0863 17.4058 15.112 17.1678 15.112C16.7758 15.112 16.4281 15.0467 16.1248 14.916C15.8261 14.7807 15.5741 14.5917 15.3688 14.349C15.1634 14.1063 15.0071 13.8193 14.8998 13.488C14.7971 13.152 14.7458 12.7833 14.7458 12.382V7.818H16.4748ZM25.2088 15.112C24.5881 15.112 24.1098 14.937 23.7738 14.587C23.4378 14.2323 23.2698 13.7447 23.2698 13.124V9.113H22.5418C22.4484 9.113 22.3668 9.08267 22.2968 9.022C22.2314 8.96133 22.1988 8.87033 22.1988 8.749V8.063L23.3538 7.874L23.7178 5.914C23.7364 5.82067 23.7784 5.74833 23.8438 5.697C23.9138 5.64567 24.0001 5.62 24.1028 5.62H24.9988V7.881H26.8888V9.113H24.9988V13.005C24.9988 13.229 25.0548 13.404 25.1668 13.53C25.2788 13.656 25.4281 13.719 25.6148 13.719C25.7221 13.719 25.8108 13.7073 25.8808 13.684C25.9554 13.656 26.0184 13.628 26.0698 13.6C26.1258 13.572 26.1748 13.5463 26.2168 13.523C26.2588 13.495 26.3008 13.481 26.3428 13.481C26.3941 13.481 26.4361 13.495 26.4688 13.523C26.5014 13.5463 26.5364 13.5837 26.5738 13.635L27.0918 14.475C26.8398 14.685 26.5504 14.8437 26.2238 14.951C25.8971 15.0583 25.5588 15.112 25.2088 15.112ZM28.0398 10.051H31.6658V11.493H28.0398V10.051ZM36.3611 7.706C36.8978 7.706 37.3831 7.79233 37.8171 7.965C38.2558 8.13767 38.6291 8.38267 38.9371 8.7C39.2451 9.01733 39.4831 9.40467 39.6511 9.862C39.8191 10.3193 39.9031 10.8303 39.9031 11.395C39.9031 11.9643 39.8191 12.4777 39.6511 12.935C39.4831 13.3923 39.2451 13.782 38.9371 14.104C38.6291 14.426 38.2558 14.6733 37.8171 14.846C37.3831 15.0187 36.8978 15.105 36.3611 15.105C35.8244 15.105 35.3368 15.0187 34.8981 14.846C34.4594 14.6733 34.0838 14.426 33.7711 14.104C33.4631 13.782 33.2228 13.3923 33.0501 12.935C32.8821 12.4777 32.7981 11.9643 32.7981 11.395C32.7981 10.8303 32.8821 10.3193 33.0501 9.862C33.2228 9.40467 33.4631 9.01733 33.7711 8.7C34.0838 8.38267 34.4594 8.13767 34.8981 7.965C35.3368 7.79233 35.8244 7.706 36.3611 7.706ZM36.3611 13.775C36.9584 13.775 37.3994 13.5743 37.6841 13.173C37.9734 12.7717 38.1181 12.1837 38.1181 11.409C38.1181 10.6343 37.9734 10.044 37.6841 9.638C37.3994 9.232 36.9584 9.029 36.3611 9.029C35.7544 9.029 35.3064 9.23433 35.0171 9.645C34.7278 10.051 34.5831 10.639 34.5831 11.409C34.5831 12.179 34.7278 12.767 35.0171 13.173C35.3064 13.5743 35.7544 13.775 36.3611 13.775ZM41.5601 15V9.12L40.9371 9.022C40.8018 8.99867 40.6921 8.952 40.6081 8.882C40.5288 8.812 40.4891 8.714 40.4891 8.588V7.881H41.5601V7.349C41.5601 6.93833 41.6208 6.56967 41.7421 6.243C41.8681 5.91633 42.0455 5.63867 42.2741 5.41C42.5075 5.18133 42.7898 5.00633 43.1211 4.885C43.4525 4.76367 43.8258 4.703 44.2411 4.703C44.5725 4.703 44.8805 4.74733 45.1651 4.836L45.1301 5.704C45.1208 5.83933 45.0578 5.92333 44.9411 5.956C44.8245 5.98867 44.6891 6.005 44.5351 6.005C44.3298 6.005 44.1455 6.02833 43.9821 6.075C43.8235 6.117 43.6881 6.194 43.5761 6.306C43.4641 6.41333 43.3778 6.558 43.3171 6.74C43.2611 6.91733 43.2331 7.139 43.2331 7.405V7.881H45.1021V9.113H43.2891V15H41.5601ZM45.9363 10.051H49.5623V11.493H45.9363V10.051ZM55.4546 9.218C55.4079 9.29267 55.3589 9.34633 55.3076 9.379C55.2562 9.407 55.1909 9.421 55.1116 9.421C55.0276 9.421 54.9366 9.39767 54.8386 9.351C54.7452 9.30433 54.6356 9.253 54.5096 9.197C54.3836 9.13633 54.2389 9.08267 54.0756 9.036C53.9169 8.98933 53.7279 8.966 53.5086 8.966C53.1679 8.966 52.8996 9.03833 52.7036 9.183C52.5076 9.32767 52.4096 9.51667 52.4096 9.75C52.4096 9.904 52.4586 10.0347 52.5566 10.142C52.6592 10.2447 52.7922 10.3357 52.9556 10.415C53.1236 10.4943 53.3126 10.5667 53.5226 10.632C53.7326 10.6927 53.9472 10.7603 54.1666 10.835C54.3859 10.9097 54.6006 10.996 54.8106 11.094C55.0206 11.1873 55.2072 11.3087 55.3706 11.458C55.5386 11.6027 55.6716 11.7777 55.7696 11.983C55.8722 12.1883 55.9236 12.4357 55.9236 12.725C55.9236 13.0703 55.8606 13.39 55.7346 13.684C55.6086 13.9733 55.4242 14.2253 55.1816 14.44C54.9389 14.65 54.6379 14.8157 54.2786 14.937C53.9239 15.0537 53.5156 15.112 53.0536 15.112C52.8062 15.112 52.5636 15.0887 52.3256 15.042C52.0922 15 51.8659 14.9393 51.6466 14.86C51.4319 14.7807 51.2312 14.6873 51.0446 14.58C50.8626 14.4727 50.7016 14.356 50.5616 14.23L50.9606 13.572C51.0119 13.4927 51.0726 13.432 51.1426 13.39C51.2126 13.348 51.3012 13.327 51.4086 13.327C51.5159 13.327 51.6162 13.3573 51.7096 13.418C51.8076 13.4787 51.9196 13.544 52.0456 13.614C52.1716 13.684 52.3186 13.7493 52.4866 13.81C52.6592 13.8707 52.8762 13.901 53.1376 13.901C53.3429 13.901 53.5179 13.8777 53.6626 13.831C53.8119 13.7797 53.9332 13.7143 54.0266 13.635C54.1246 13.5557 54.1946 13.4647 54.2366 13.362C54.2832 13.2547 54.3066 13.145 54.3066 13.033C54.3066 12.865 54.2552 12.7273 54.1526 12.62C54.0546 12.5127 53.9216 12.4193 53.7536 12.34C53.5902 12.2607 53.4012 12.1907 53.1866 12.13C52.9766 12.0647 52.7596 11.9947 52.5356 11.92C52.3162 11.8453 52.0992 11.759 51.8846 11.661C51.6746 11.5583 51.4856 11.43 51.3176 11.276C51.1542 11.122 51.0212 10.933 50.9186 10.709C50.8206 10.485 50.7716 10.2143 50.7716 9.897C50.7716 9.603 50.8299 9.323 50.9466 9.057C51.0632 8.791 51.2336 8.56 51.4576 8.364C51.6862 8.16333 51.9686 8.00467 52.3046 7.888C52.6452 7.76667 53.0372 7.706 53.4806 7.706C53.9752 7.706 54.4256 7.78767 54.8316 7.951C55.2376 8.11433 55.5759 8.329 55.8466 8.595L55.4546 9.218ZM60.2709 7.706C60.7236 7.706 61.1389 7.77833 61.5169 7.923C61.8996 8.06767 62.2286 8.28 62.5039 8.56C62.7792 8.83533 62.9939 9.176 63.1479 9.582C63.3019 9.98333 63.3789 10.443 63.3789 10.961C63.3789 11.0917 63.3719 11.2013 63.3579 11.29C63.3486 11.374 63.3276 11.4417 63.2949 11.493C63.2669 11.5397 63.2272 11.5747 63.1759 11.598C63.1246 11.6167 63.0592 11.626 62.9799 11.626H58.5419C58.5932 12.3633 58.7916 12.9047 59.1369 13.25C59.4822 13.5953 59.9396 13.768 60.5089 13.768C60.7889 13.768 61.0292 13.7353 61.2299 13.67C61.4352 13.6047 61.6126 13.5323 61.7619 13.453C61.9159 13.3737 62.0489 13.3013 62.1609 13.236C62.2776 13.1707 62.3896 13.138 62.4969 13.138C62.5669 13.138 62.6276 13.152 62.6789 13.18C62.7302 13.208 62.7746 13.2477 62.8119 13.299L63.3159 13.929C63.1246 14.153 62.9099 14.342 62.6719 14.496C62.4339 14.6453 62.1842 14.7667 61.9229 14.86C61.6662 14.9487 61.4026 15.0117 61.1319 15.049C60.8659 15.0863 60.6069 15.105 60.3549 15.105C59.8556 15.105 59.3912 15.0233 58.9619 14.86C58.5326 14.692 58.1592 14.447 57.8419 14.125C57.5246 13.7983 57.2749 13.397 57.0929 12.921C56.9109 12.4403 56.8199 11.885 56.8199 11.255C56.8199 10.765 56.8992 10.3053 57.0579 9.876C57.2166 9.442 57.4429 9.06633 57.7369 8.749C58.0356 8.427 58.3972 8.17267 58.8219 7.986C59.2512 7.79933 59.7342 7.706 60.2709 7.706ZM60.3059 8.945C59.8019 8.945 59.4076 9.08733 59.1229 9.372C58.8382 9.65667 58.6562 10.0603 58.5769 10.583H61.8249C61.8249 10.359 61.7946 10.149 61.7339 9.953C61.6732 9.75233 61.5799 9.57733 61.4539 9.428C61.3279 9.27867 61.1692 9.162 60.9779 9.078C60.7866 8.98933 60.5626 8.945 60.3059 8.945ZM64.7814 15V7.818H65.7964C65.9738 7.818 66.0974 7.85067 66.1674 7.916C66.2374 7.98133 66.2841 8.09333 66.3074 8.252L66.4124 9.12C66.6691 8.67667 66.9701 8.32667 67.3154 8.07C67.6608 7.81333 68.0481 7.685 68.4774 7.685C68.8321 7.685 69.1261 7.76667 69.3594 7.93L69.1354 9.225C69.1214 9.309 69.0911 9.36967 69.0444 9.407C68.9978 9.43967 68.9348 9.456 68.8554 9.456C68.7854 9.456 68.6898 9.43967 68.5684 9.407C68.4471 9.37433 68.2861 9.358 68.0854 9.358C67.7261 9.358 67.4181 9.45833 67.1614 9.659C66.9048 9.855 66.6878 10.1443 66.5104 10.527V15H64.7814ZM74.0943 15H72.5263L69.6703 7.818H71.1053C71.2313 7.818 71.3363 7.84833 71.4203 7.909C71.5089 7.96967 71.5696 8.04667 71.6023 8.14L72.9883 11.976C73.0676 12.2 73.1329 12.4193 73.1843 12.634C73.2403 12.8487 73.2893 13.0633 73.3313 13.278C73.3733 13.0633 73.4199 12.8487 73.4713 12.634C73.5273 12.4193 73.5973 12.2 73.6813 11.976L75.1023 8.14C75.1349 8.04667 75.1933 7.96967 75.2773 7.909C75.3613 7.84833 75.4616 7.818 75.5783 7.818H76.9433L74.0943 15ZM79.8021 7.818V15H78.0731V7.818H79.8021ZM80.0611 5.725C80.0611 5.87433 80.0308 6.01433 79.9701 6.145C79.9094 6.27567 79.8278 6.39 79.7251 6.488C79.6271 6.586 79.5104 6.66533 79.3751 6.726C79.2398 6.782 79.0951 6.81 78.9411 6.81C78.7918 6.81 78.6494 6.782 78.5141 6.726C78.3834 6.66533 78.2691 6.586 78.1711 6.488C78.0731 6.39 77.9938 6.27567 77.9331 6.145C77.8771 6.01433 77.8491 5.87433 77.8491 5.725C77.8491 5.571 77.8771 5.42633 77.9331 5.291C77.9938 5.15567 78.0731 5.039 78.1711 4.941C78.2691 4.843 78.3834 4.766 78.5141 4.71C78.6494 4.64933 78.7918 4.619 78.9411 4.619C79.0951 4.619 79.2398 4.64933 79.3751 4.71C79.5104 4.766 79.6271 4.843 79.7251 4.941C79.8278 5.039 79.9094 5.15567 79.9701 5.291C80.0308 5.42633 80.0611 5.571 80.0611 5.725ZM86.8089 9.337C86.7576 9.40233 86.7062 9.45367 86.6549 9.491C86.6082 9.52833 86.5382 9.547 86.4449 9.547C86.3562 9.547 86.2699 9.52133 86.1859 9.47C86.1019 9.414 86.0016 9.35333 85.8849 9.288C85.7682 9.218 85.6282 9.15733 85.4649 9.106C85.3062 9.05 85.1079 9.022 84.8699 9.022C84.5666 9.022 84.3006 9.078 84.0719 9.19C83.8432 9.29733 83.6519 9.45367 83.4979 9.659C83.3486 9.86433 83.2366 10.114 83.1619 10.408C83.0872 10.6973 83.0499 11.0263 83.0499 11.395C83.0499 11.7777 83.0896 12.1183 83.1689 12.417C83.2529 12.7157 83.3719 12.9677 83.5259 13.173C83.6799 13.3737 83.8666 13.5277 84.0859 13.635C84.3052 13.7377 84.5526 13.789 84.8279 13.789C85.1032 13.789 85.3249 13.7563 85.4929 13.691C85.6656 13.621 85.8102 13.5463 85.9269 13.467C86.0436 13.383 86.1439 13.3083 86.2279 13.243C86.3166 13.173 86.4146 13.138 86.5219 13.138C86.6619 13.138 86.7669 13.1917 86.8369 13.299L87.3339 13.929C87.1426 14.153 86.9349 14.342 86.7109 14.496C86.4869 14.6453 86.2536 14.7667 86.0109 14.86C85.7729 14.9487 85.5256 15.0117 85.2689 15.049C85.0122 15.0863 84.7579 15.105 84.5059 15.105C84.0626 15.105 83.6449 15.0233 83.2529 14.86C82.8609 14.692 82.5179 14.4493 82.2239 14.132C81.9346 13.8147 81.7036 13.4273 81.5309 12.97C81.3629 12.508 81.2789 11.983 81.2789 11.395C81.2789 10.8677 81.3536 10.38 81.5029 9.932C81.6569 9.47933 81.8809 9.08967 82.1749 8.763C82.4689 8.43167 82.8329 8.17267 83.2669 7.986C83.7009 7.79933 84.2002 7.706 84.7649 7.706C85.3016 7.706 85.7706 7.79233 86.1719 7.965C86.5779 8.13767 86.9419 8.385 87.2639 8.707L86.8089 9.337ZM91.4018 7.706C91.8544 7.706 92.2698 7.77833 92.6478 7.923C93.0304 8.06767 93.3594 8.28 93.6348 8.56C93.9101 8.83533 94.1248 9.176 94.2788 9.582C94.4328 9.98333 94.5098 10.443 94.5098 10.961C94.5098 11.0917 94.5028 11.2013 94.4888 11.29C94.4794 11.374 94.4584 11.4417 94.4258 11.493C94.3978 11.5397 94.3581 11.5747 94.3068 11.598C94.2554 11.6167 94.1901 11.626 94.1108 11.626H89.6728C89.7241 12.3633 89.9224 12.9047 90.2678 13.25C90.6131 13.5953 91.0704 13.768 91.6398 13.768C91.9198 13.768 92.1601 13.7353 92.3608 13.67C92.5661 13.6047 92.7434 13.5323 92.8928 13.453C93.0468 13.3737 93.1798 13.3013 93.2918 13.236C93.4084 13.1707 93.5204 13.138 93.6278 13.138C93.6978 13.138 93.7584 13.152 93.8098 13.18C93.8611 13.208 93.9054 13.2477 93.9428 13.299L94.4468 13.929C94.2554 14.153 94.0408 14.342 93.8028 14.496C93.5648 14.6453 93.3151 14.7667 93.0538 14.86C92.7971 14.9487 92.5334 15.0117 92.2628 15.049C91.9968 15.0863 91.7378 15.105 91.4858 15.105C90.9864 15.105 90.5221 15.0233 90.0928 14.86C89.6634 14.692 89.2901 14.447 88.9728 14.125C88.6554 13.7983 88.4058 13.397 88.2238 12.921C88.0418 12.4403 87.9508 11.885 87.9508 11.255C87.9508 10.765 88.0301 10.3053 88.1888 9.876C88.3474 9.442 88.5738 9.06633 88.8678 8.749C89.1664 8.427 89.5281 8.17267 89.9528 7.986C90.3821 7.79933 90.8651 7.706 91.4018 7.706ZM91.4368 8.945C90.9328 8.945 90.5384 9.08733 90.2538 9.372C89.9691 9.65667 89.7871 10.0603 89.7078 10.583H92.9558C92.9558 10.359 92.9254 10.149 92.8648 9.953C92.8041 9.75233 92.7108 9.57733 92.5848 9.428C92.4588 9.27867 92.3001 9.162 92.1088 9.078C91.9174 8.98933 91.6934 8.945 91.4368 8.945Z" fill="white"/>
</svg>
