<svg width="15" height="15" viewBox="0 0 15 15" fill="none" xmlns="http://www.w3.org/2000/svg">
<path d="M13.2776 0.603755C12.4712 -0.201252 11.1652 -0.201252 10.3588 0.603755L9.62819 1.33838L1.85072 9.11172L1.83419 9.12838C1.83019 9.13238 1.83019 9.13664 1.82593 9.13664C1.81766 9.14904 1.80527 9.16131 1.79713 9.1737C1.79713 9.17784 1.79287 9.17784 1.79287 9.18197C1.78461 9.19436 1.7806 9.20263 1.77221 9.21503C1.76821 9.21916 1.76821 9.22316 1.76407 9.22742C1.75994 9.23982 1.75581 9.24808 1.75155 9.26048C1.75155 9.26448 1.74755 9.26448 1.74755 9.26874L0.0219598 14.4578C-0.0286598 14.6055 0.00982144 14.7691 0.121004 14.8787C0.199128 14.9558 0.3045 14.999 0.414133 14.9986C0.458941 14.9978 0.503362 14.9908 0.546234 14.9779L5.73126 13.2482C5.73526 13.2482 5.73526 13.2482 5.73952 13.2442C5.75256 13.2403 5.76509 13.2348 5.77658 13.2275C5.77981 13.2271 5.78265 13.2257 5.78497 13.2235C5.79724 13.2153 5.81377 13.2069 5.82617 13.1986C5.83844 13.1905 5.85096 13.1781 5.86336 13.1698C5.86749 13.1655 5.87149 13.1655 5.87149 13.1615C5.87575 13.1574 5.88402 13.1534 5.88815 13.145L14.3962 4.63692C15.2013 3.8305 15.2013 2.52459 14.3962 1.71829L13.2776 0.603755ZM5.59915 12.278L2.72598 9.40498L9.91719 2.21377L12.7904 5.08682L5.59915 12.278ZM2.32128 10.1687L4.83134 12.6786L1.06224 13.9335L2.32128 10.1687ZM13.8142 4.05893L13.3766 4.50069L10.5033 1.62738L10.9452 1.18575C11.4285 0.702799 12.212 0.702799 12.6955 1.18575L13.8183 2.30855C14.298 2.79409 14.2962 3.57572 13.8142 4.05893Z" fill="#7A827F"/>
</svg>
