<svg width="30" height="14" viewBox="0 0 30 14" fill="none" xmlns="http://www.w3.org/2000/svg">
<path d="M0.0220001 11V3.909H0.736C0.871333 3.909 0.964667 3.93467 1.016 3.986C1.06733 4.03733 1.10233 4.126 1.121 4.252L1.205 5.358C1.44767 4.86333 1.74633 4.47833 2.101 4.203C2.46033 3.923 2.88033 3.783 3.361 3.783C3.557 3.783 3.73433 3.80633 3.893 3.853C4.05167 3.895 4.19867 3.95567 4.334 4.035L4.173 4.966C4.14033 5.08267 4.068 5.141 3.956 5.141C3.89067 5.141 3.79033 5.12 3.655 5.078C3.51967 5.03133 3.33067 5.008 3.088 5.008C2.654 5.008 2.29 5.134 1.996 5.386C1.70667 5.638 1.464 6.00433 1.268 6.485V11H0.0220001ZM10.6167 11H10.0637C9.94239 11 9.84439 10.9813 9.76972 10.944C9.69505 10.9067 9.64605 10.8273 9.62272 10.706L9.48272 10.048C9.29605 10.216 9.11405 10.3677 8.93672 10.503C8.75939 10.6337 8.57272 10.7457 8.37672 10.839C8.18072 10.9277 7.97072 10.9953 7.74672 11.042C7.52739 11.0887 7.28239 11.112 7.01172 11.112C6.73639 11.112 6.47739 11.0747 6.23472 11C5.99672 10.9207 5.78905 10.804 5.61172 10.65C5.43439 10.496 5.29205 10.3023 5.18472 10.069C5.08205 9.831 5.03072 9.551 5.03072 9.229C5.03072 8.949 5.10772 8.68067 5.26172 8.424C5.41572 8.16267 5.66305 7.93167 6.00372 7.731C6.34905 7.53033 6.79939 7.367 7.35472 7.241C7.91005 7.11033 8.58905 7.03567 9.39172 7.017V6.464C9.39172 5.91333 9.27272 5.498 9.03472 5.218C8.80139 4.93333 8.45372 4.791 7.99172 4.791C7.68839 4.791 7.43172 4.83067 7.22172 4.91C7.01639 4.98467 6.83672 5.071 6.68272 5.169C6.53339 5.26233 6.40272 5.34867 6.29072 5.428C6.18339 5.50267 6.07605 5.54 5.96872 5.54C5.88472 5.54 5.81005 5.519 5.74472 5.477C5.68405 5.43033 5.63505 5.37433 5.59772 5.309L5.37372 4.91C5.76572 4.532 6.18805 4.24967 6.64072 4.063C7.09339 3.87633 7.59505 3.783 8.14572 3.783C8.54239 3.783 8.89472 3.84833 9.20272 3.979C9.51072 4.10967 9.76972 4.29167 9.97972 4.525C10.1897 4.75833 10.3484 5.04067 10.4557 5.372C10.5631 5.70333 10.6167 6.06733 10.6167 6.464V11ZM7.38272 10.237C7.60205 10.237 7.80272 10.216 7.98472 10.174C8.16672 10.1273 8.33705 10.0643 8.49572 9.985C8.65905 9.901 8.81305 9.80067 8.95772 9.684C9.10705 9.56733 9.25172 9.43433 9.39172 9.285V7.808C8.81772 7.82667 8.33005 7.87333 7.92872 7.948C7.52739 8.018 7.20072 8.11133 6.94872 8.228C6.69672 8.34467 6.51239 8.48233 6.39572 8.641C6.28372 8.79967 6.22772 8.977 6.22772 9.173C6.22772 9.35967 6.25805 9.52067 6.31872 9.656C6.37939 9.79133 6.46105 9.90333 6.56372 9.992C6.66639 10.076 6.78772 10.139 6.92772 10.181C7.06772 10.2183 7.21939 10.237 7.38272 10.237ZM13.8904 3.909V11H12.6444V3.909H13.8904ZM14.1704 1.683C14.1704 1.80433 14.1448 1.91867 14.0934 2.026C14.0468 2.12867 13.9814 2.222 13.8974 2.306C13.8181 2.38533 13.7248 2.44833 13.6174 2.495C13.5101 2.54167 13.3958 2.565 13.2744 2.565C13.1531 2.565 13.0388 2.54167 12.9314 2.495C12.8288 2.44833 12.7354 2.38533 12.6514 2.306C12.5721 2.222 12.5091 2.12867 12.4624 2.026C12.4158 1.91867 12.3924 1.80433 12.3924 1.683C12.3924 1.56167 12.4158 1.44733 12.4624 1.34C12.5091 1.228 12.5721 1.13233 12.6514 1.053C12.7354 0.969 12.8288 0.903666 12.9314 0.856999C13.0388 0.810333 13.1531 0.786999 13.2744 0.786999C13.3958 0.786999 13.5101 0.810333 13.6174 0.856999C13.7248 0.903666 13.8181 0.969 13.8974 1.053C13.9814 1.13233 14.0468 1.228 14.0934 1.34C14.1448 1.44733 14.1704 1.56167 14.1704 1.683ZM16.0865 11V3.909H16.8285C17.0058 3.909 17.1178 3.99533 17.1645 4.168L17.2625 4.938C17.5705 4.59733 17.9135 4.322 18.2915 4.112C18.6741 3.902 19.1151 3.797 19.6145 3.797C20.0018 3.797 20.3425 3.86233 20.6365 3.993C20.9351 4.119 21.1825 4.301 21.3785 4.539C21.5791 4.77233 21.7308 5.05467 21.8335 5.386C21.9361 5.71733 21.9875 6.08367 21.9875 6.485V11H20.7415V6.485C20.7415 5.94833 20.6178 5.533 20.3705 5.239C20.1278 4.94033 19.7545 4.791 19.2505 4.791C18.8818 4.791 18.5365 4.87967 18.2145 5.057C17.8971 5.23433 17.6031 5.47467 17.3325 5.778V11H16.0865ZM25.726 13.093C25.684 13.1863 25.6303 13.261 25.565 13.317C25.5043 13.373 25.4087 13.401 25.278 13.401H24.354L25.649 10.587L22.723 3.909H23.801C23.9083 3.909 23.9923 3.937 24.053 3.993C24.1137 4.04433 24.158 4.10267 24.186 4.168L26.083 8.634C26.125 8.73667 26.16 8.83933 26.188 8.942C26.2207 9.04467 26.2487 9.14967 26.272 9.257C26.3047 9.14967 26.3373 9.04467 26.37 8.942C26.4027 8.83933 26.44 8.73433 26.482 8.627L28.323 4.168C28.351 4.09333 28.3977 4.03267 28.463 3.986C28.533 3.93467 28.6077 3.909 28.687 3.909H29.681L25.726 13.093Z" fill="#7A827F"/>
</svg>
