<svg width="25" height="25" viewBox="0 0 25 25" fill="none" xmlns="http://www.w3.org/2000/svg">
<path d="M5.44667 18.2461C5.22231 18.0965 4.91918 18.1572 4.76957 18.3815L2.81645 21.3112C2.66684 21.5356 2.72748 21.8387 2.95185 21.9883C3.17524 22.1372 3.47875 22.0782 3.62895 21.8529L5.58207 18.9232C5.73168 18.6988 5.67104 18.3957 5.44667 18.2461Z" fill="#3A423E"/>
<path d="M5.88154 24.918C6.10492 25.0669 6.40844 25.0079 6.55864 24.7826L7.5352 23.3178C7.68476 23.0934 7.62416 22.7902 7.3998 22.6407C7.17543 22.4911 6.87226 22.5516 6.7227 22.7761L5.74614 24.2409C5.59653 24.4653 5.65717 24.7684 5.88154 24.918Z" fill="#3A423E"/>
<path d="M9.16408 18.3815L8.18752 19.8464C8.03796 20.0707 8.09856 20.3739 8.32292 20.5235C8.54631 20.6724 8.84983 20.6134 9.00002 20.3881L9.97658 18.9232C10.1261 18.6988 10.0655 18.3957 9.84118 18.2461C9.61682 18.0966 9.31364 18.1571 9.16408 18.3815Z" fill="#3A423E"/>
<path d="M11.7409 21.9883C11.9643 22.1372 12.2678 22.0782 12.418 21.8529L14.3711 18.9232C14.5207 18.6988 14.4601 18.3957 14.2357 18.2461C14.0114 18.0965 13.7082 18.1572 13.5586 18.3815L11.6055 21.3112C11.4559 21.5356 11.5165 21.8387 11.7409 21.9883Z" fill="#3A423E"/>
<path d="M14.6706 24.918C14.894 25.0669 15.1975 25.0079 15.3477 24.7826L16.3243 23.3178C16.4738 23.0934 16.4132 22.7902 16.1889 22.6407C15.9645 22.4911 15.6614 22.5516 15.5118 22.7761L14.5352 24.2409C14.3856 24.4653 14.4462 24.7684 14.6706 24.918Z" fill="#3A423E"/>
<path d="M17.9531 18.3815L16.9766 19.8464C16.827 20.0707 16.8876 20.3739 17.112 20.5235C17.3354 20.6724 17.6389 20.6134 17.7891 20.3881L18.7656 18.9232C18.9152 18.6988 18.8546 18.3957 18.6302 18.2461C18.4059 18.0966 18.1028 18.1571 17.9531 18.3815Z" fill="#3A423E"/>
<path d="M22.3477 18.3815L20.3946 21.3112C20.245 21.5356 20.3056 21.8387 20.53 21.9883C20.7534 22.1372 21.0569 22.0782 21.2071 21.8529L23.1602 18.9232C23.3098 18.6988 23.2492 18.3957 23.0248 18.2461C22.8005 18.0966 22.4973 18.1571 22.3477 18.3815Z" fill="#3A423E"/>
<path d="M12.5 15.625C12.7697 15.625 12.9883 15.4064 12.9883 15.1367C12.9883 14.867 12.7697 14.6484 12.5 14.6484C12.2303 14.6484 12.0117 14.867 12.0117 15.1367C12.0117 15.4064 12.2303 15.625 12.5 15.625Z" fill="#3A423E"/>
<path d="M3.51562 15.625H10.3027C10.5724 15.625 10.791 15.4064 10.791 15.1367C10.791 14.867 10.5724 14.6484 10.3027 14.6484H3.51562C2.13931 14.6484 0.976562 13.5304 0.976562 12.207C0.976562 10.8328 2.20688 9.73291 3.57686 9.76645C3.8916 9.77393 4.12949 9.48716 4.06733 9.18115C3.85391 8.13018 4.20083 7.04897 4.99536 6.28897C5.70493 5.61021 6.65068 5.28818 7.59492 5.38623C7.54512 5.70371 7.51953 6.02539 7.51953 6.34766C7.51953 6.61733 7.73813 6.83594 8.00781 6.83594C8.27749 6.83594 8.49609 6.61733 8.49609 6.34766C8.49609 3.34692 11.0468 0.976562 13.9648 0.976562C16.821 0.976562 19.2572 3.18061 19.5093 5.88545C17.0586 6.13516 15.0391 8.19839 15.0391 10.7422C15.0391 11.0119 15.2577 11.2305 15.5273 11.2305C15.797 11.2305 16.0156 11.0119 16.0156 10.7422C16.0156 8.6248 17.8492 6.83594 20.0195 6.83594C22.1899 6.83594 24.0234 8.6248 24.0234 10.7422C24.0234 12.8596 22.1899 14.6484 20.0195 14.6484H14.6973C14.4276 14.6484 14.209 14.867 14.209 15.1367C14.209 15.4064 14.4276 15.625 14.6973 15.625H20.0195C22.7292 15.625 25 13.4317 25 10.7422C25 8.18979 22.9643 6.11353 20.49 5.88135C20.2328 2.53193 17.2445 0 13.9648 0C11.1934 0 8.68589 1.79824 7.82519 4.43032C6.55469 4.25801 5.27241 4.67261 4.32041 5.58325C3.42046 6.44409 2.96069 7.62388 3.03691 8.82261C1.35903 9.05684 0 10.4754 0 12.207C0 14.1094 1.64243 15.625 3.51562 15.625Z" fill="#3A423E"/>
</svg>
