<svg width="25" height="25" viewBox="0 0 25 25" fill="none" xmlns="http://www.w3.org/2000/svg">
<path d="M12.5001 5.56421C8.66948 5.56421 5.56421 8.66948 5.56421 12.5001C5.56421 16.3307 8.66948 19.436 12.5001 19.436C16.3307 19.436 19.436 16.3307 19.436 12.5001C19.4316 8.67135 16.3289 5.56857 12.5001 5.56421ZM12.5001 18.3722C9.25708 18.3722 6.62804 15.7431 6.62804 12.5001C6.62804 9.25708 9.25708 6.62804 12.5001 6.62804C15.7431 6.62804 18.3722 9.25708 18.3722 12.5001C18.3684 15.7417 15.7417 18.3684 12.5001 18.3722Z" fill="#3A423E"/>
<path d="M13.0321 3.24469V0.531916C13.0321 0.238116 12.794 0 12.5002 0C12.2064 0 11.9683 0.238116 11.9683 0.531916V3.24469C11.9683 3.53849 12.2064 3.7766 12.5002 3.7766C12.794 3.7766 13.0321 3.53849 13.0321 3.24469Z" fill="#3A423E"/>
<path d="M12.5002 21.2234C12.2064 21.2234 11.9683 21.4616 11.9683 21.7554V24.4681C11.9683 24.7619 12.2064 25.0001 12.5002 25.0001C12.794 25.0001 13.0321 24.7619 13.0321 24.4681V21.7554C13.0321 21.4616 12.794 21.2234 12.5002 21.2234Z" fill="#3A423E"/>
<path d="M24.4681 11.9681H21.7553C21.4615 11.9681 21.2234 12.2063 21.2234 12.5001C21.2234 12.7939 21.4615 13.032 21.7553 13.032H24.4681C24.7619 13.032 25 12.7939 25 12.5001C25 12.2063 24.7619 11.9681 24.4681 11.9681Z" fill="#3A423E"/>
<path d="M3.7766 12.5001C3.7766 12.2063 3.53849 11.9681 3.24469 11.9681H0.531916C0.238116 11.9681 0 12.2063 0 12.5001C0 12.7939 0.238116 13.032 0.531916 13.032H3.24469C3.53849 13.032 3.7766 12.7939 3.7766 12.5001Z" fill="#3A423E"/>
<path d="M19.4287 6.32351L21.3156 4.43666C21.5219 4.22867 21.5211 3.89311 21.3139 3.68616C21.107 3.47901 20.7714 3.47817 20.5634 3.6845L18.6766 5.57135C18.5413 5.70536 18.4879 5.90172 18.5369 6.08602C18.5862 6.27011 18.73 6.41389 18.9141 6.46314C19.0984 6.51217 19.2947 6.45877 19.4287 6.32351Z" fill="#3A423E"/>
<path d="M5.5715 18.6765L3.68465 20.5634C3.54918 20.6976 3.49599 20.8939 3.54503 21.078C3.59406 21.2621 3.73805 21.4061 3.92215 21.4551C4.10624 21.5042 4.30259 21.451 4.43682 21.3155L6.32366 19.4287C6.45893 19.2947 6.51233 19.0983 6.46329 18.914C6.41405 18.7299 6.27026 18.5861 6.08617 18.5369C5.90187 18.4878 5.70552 18.5412 5.5715 18.6765Z" fill="#3A423E"/>
<path d="M19.4287 18.6765C19.2947 18.5412 19.0984 18.4878 18.9141 18.5369C18.73 18.5861 18.5862 18.7299 18.5369 18.914C18.4879 19.0983 18.5413 19.2947 18.6766 19.4287L20.5634 21.3155C20.7714 21.5218 21.107 21.521 21.3139 21.3139C21.5211 21.1069 21.5219 20.7713 21.3156 20.5634L19.4287 18.6765Z" fill="#3A423E"/>
<path d="M5.57135 6.32351C5.70536 6.45877 5.90172 6.51217 6.08602 6.46314C6.27011 6.41389 6.41389 6.27011 6.46314 6.08602C6.51217 5.90172 6.45877 5.70536 6.32351 5.57135L4.43666 3.6845C4.22867 3.47817 3.89311 3.47901 3.68616 3.68616C3.47901 3.89311 3.47817 4.22867 3.6845 4.43666L5.57135 6.32351Z" fill="#3A423E"/>
</svg>
