<svg width="15" height="19" viewBox="0 0 15 19" fill="none" xmlns="http://www.w3.org/2000/svg">
<path d="M14.9535 4.10505L14.548 2.88952C14.3935 2.42657 13.9618 2.11551 13.474 2.11551H10.0658V1.00591C10.0658 0.451322 9.61495 0 9.0605 0H5.9395C5.38519 0 4.93415 0.451322 4.93415 1.00591V2.11551H1.52619C1.03816 2.11551 0.606452 2.42657 0.452042 2.88952L0.0465391 4.10505C-0.045799 4.38178 0.00100057 4.68822 0.171525 4.92488C0.342049 5.16154 0.617942 5.30292 0.909669 5.30292H1.33353L2.26644 16.839C2.33579 17.695 3.06217 18.3656 3.92039 18.3656H11.2689C12.127 18.3656 12.8535 17.695 12.9227 16.8389L13.8556 5.30292H14.0903C14.3821 5.30292 14.658 5.16154 14.8285 4.92502C14.999 4.68836 15.0458 4.38178 14.9535 4.10505ZM6.01026 1.07611H8.98974V2.11551H6.01026V1.07611ZM11.8501 16.7521C11.8257 17.0535 11.5704 17.2895 11.2689 17.2895H3.92039C3.61886 17.2895 3.36356 17.0535 3.33918 16.7521L2.41314 5.30292H12.776L11.8501 16.7521ZM1.14044 4.22681L1.47294 3.23001C1.48051 3.20703 1.50195 3.19162 1.52619 3.19162H13.474C13.4982 3.19162 13.5195 3.20703 13.5272 3.23001L13.8597 4.22681H1.14044Z" fill="#7A827F"/>
<path d="M10.134 16.714C10.1435 16.7145 10.1529 16.7147 10.1624 16.7147C10.4467 16.7147 10.6844 16.4919 10.6992 16.2046L11.2045 6.50536C11.2199 6.20859 10.9918 5.9554 10.6951 5.93998C10.3977 5.92415 10.1453 6.15254 10.1298 6.44932L9.62464 16.1486C9.60923 16.4454 9.8372 16.6986 10.134 16.714Z" fill="#7A827F"/>
<path d="M4.32475 16.2061C4.34045 16.4929 4.57781 16.7148 4.86155 16.7148C4.87136 16.7148 4.88144 16.7145 4.89139 16.714C5.18802 16.6979 5.41544 16.4443 5.39932 16.1475L4.8701 6.4482C4.85398 6.15143 4.60037 5.92402 4.3036 5.94027C4.00697 5.95639 3.77955 6.21 3.79567 6.50677L4.32475 16.2061Z" fill="#7A827F"/>
<path d="M7.50601 16.7148C7.8032 16.7148 8.04407 16.474 8.04407 16.1768V6.47751C8.04407 6.18032 7.8032 5.93945 7.50601 5.93945C7.20882 5.93945 6.96796 6.18032 6.96796 6.47751V16.1768C6.96796 16.474 7.20882 16.7148 7.50601 16.7148Z" fill="#7A827F"/>
</svg>
