<svg width="38" height="14" viewBox="0 0 38 14" fill="none" xmlns="http://www.w3.org/2000/svg">
<path d="M0.565773 3.909H1.54577C1.64844 3.909 1.73244 3.93467 1.79777 3.986C1.86311 4.03733 1.90744 4.098 1.93077 4.168L3.28877 8.732C3.32611 8.9 3.36111 9.06333 3.39377 9.222C3.42644 9.376 3.45444 9.53233 3.47777 9.691C3.51511 9.53233 3.55711 9.376 3.60377 9.222C3.65044 9.06333 3.69944 8.9 3.75077 8.732L5.24877 4.14C5.27211 4.07 5.31177 4.01167 5.36777 3.965C5.42844 3.91833 5.50311 3.895 5.59177 3.895H6.13077C6.22411 3.895 6.30111 3.91833 6.36177 3.965C6.42244 4.01167 6.46444 4.07 6.48777 4.14L7.95077 8.732C8.00211 8.89533 8.04644 9.05633 8.08377 9.215C8.12577 9.37367 8.16544 9.53 8.20277 9.684C8.22611 9.53 8.25644 9.369 8.29377 9.201C8.33111 9.033 8.37077 8.87667 8.41277 8.732L9.79877 4.168C9.82211 4.09333 9.86644 4.03267 9.93177 3.986C9.99711 3.93467 10.0741 3.909 10.1628 3.909H11.1008L8.80477 11H7.81777C7.69644 11 7.61244 10.9207 7.56577 10.762L5.99777 5.953C5.96044 5.84567 5.93011 5.73833 5.90677 5.631C5.88344 5.519 5.86011 5.40933 5.83677 5.302C5.81344 5.40933 5.79011 5.519 5.76677 5.631C5.74344 5.743 5.71311 5.85267 5.67577 5.96L4.08677 10.762C4.03544 10.9207 3.93977 11 3.79977 11H2.86177L0.565773 3.909ZM13.5945 3.909V11H12.3485V3.909H13.5945ZM13.8745 1.683C13.8745 1.80433 13.8489 1.91867 13.7975 2.026C13.7509 2.12867 13.6855 2.222 13.6015 2.306C13.5222 2.38533 13.4289 2.44833 13.3215 2.495C13.2142 2.54167 13.0999 2.565 12.9785 2.565C12.8572 2.565 12.7429 2.54167 12.6355 2.495C12.5329 2.44833 12.4395 2.38533 12.3555 2.306C12.2762 2.222 12.2132 2.12867 12.1665 2.026C12.1199 1.91867 12.0965 1.80433 12.0965 1.683C12.0965 1.56167 12.1199 1.44733 12.1665 1.34C12.2132 1.228 12.2762 1.13233 12.3555 1.053C12.4395 0.969 12.5329 0.903666 12.6355 0.856999C12.7429 0.810333 12.8572 0.786999 12.9785 0.786999C13.0999 0.786999 13.2142 0.810333 13.3215 0.856999C13.4289 0.903666 13.5222 0.969 13.6015 1.053C13.6855 1.13233 13.7509 1.228 13.7975 1.34C13.8489 1.44733 13.8745 1.56167 13.8745 1.683ZM15.7906 11V3.909H16.5326C16.7099 3.909 16.8219 3.99533 16.8686 4.168L16.9666 4.938C17.2746 4.59733 17.6176 4.322 17.9956 4.112C18.3782 3.902 18.8192 3.797 19.3186 3.797C19.7059 3.797 20.0466 3.86233 20.3406 3.993C20.6392 4.119 20.8866 4.301 21.0826 4.539C21.2832 4.77233 21.4349 5.05467 21.5376 5.386C21.6402 5.71733 21.6916 6.08367 21.6916 6.485V11H20.4456V6.485C20.4456 5.94833 20.3219 5.533 20.0746 5.239C19.8319 4.94033 19.4586 4.791 18.9546 4.791C18.5859 4.791 18.2406 4.87967 17.9186 5.057C17.6012 5.23433 17.3072 5.47467 17.0366 5.778V11H15.7906ZM28.5609 11C28.3835 11 28.2715 10.9137 28.2249 10.741L28.1129 9.88C27.8095 10.2487 27.4619 10.545 27.0699 10.769C26.6825 10.9883 26.2369 11.098 25.7329 11.098C25.3269 11.098 24.9582 11.021 24.6269 10.867C24.2955 10.7083 24.0132 10.4773 23.7799 10.174C23.5465 9.87067 23.3669 9.49267 23.2409 9.04C23.1149 8.58733 23.0519 8.067 23.0519 7.479C23.0519 6.95633 23.1219 6.471 23.2619 6.023C23.4019 5.57033 23.6025 5.17833 23.8639 4.847C24.1299 4.51567 24.4519 4.25667 24.8299 4.07C25.2079 3.87867 25.6372 3.783 26.1179 3.783C26.5519 3.783 26.9229 3.85767 27.2309 4.007C27.5389 4.15167 27.8142 4.357 28.0569 4.623V0.689H29.3029V11H28.5609ZM26.1459 10.09C26.5519 10.09 26.9065 9.99667 27.2099 9.81C27.5179 9.62333 27.8002 9.35967 28.0569 9.019V5.589C27.8282 5.281 27.5762 5.06633 27.3009 4.945C27.0302 4.819 26.7292 4.756 26.3979 4.756C25.7352 4.756 25.2265 4.99167 24.8719 5.463C24.5172 5.93433 24.3399 6.60633 24.3399 7.479C24.3399 7.941 24.3795 8.33767 24.4589 8.669C24.5382 8.99567 24.6549 9.26633 24.8089 9.481C24.9629 9.691 25.1519 9.845 25.3759 9.943C25.5999 10.041 25.8565 10.09 26.1459 10.09ZM33.4692 13.093C33.4272 13.1863 33.3735 13.261 33.3082 13.317C33.2475 13.373 33.1518 13.401 33.0212 13.401H32.0972L33.3922 10.587L30.4662 3.909H31.5442C31.6515 3.909 31.7355 3.937 31.7962 3.993C31.8568 4.04433 31.9012 4.10267 31.9292 4.168L33.8262 8.634C33.8682 8.73667 33.9032 8.83933 33.9312 8.942C33.9638 9.04467 33.9918 9.14967 34.0152 9.257C34.0478 9.14967 34.0805 9.04467 34.1132 8.942C34.1458 8.83933 34.1832 8.73433 34.2252 8.627L36.0662 4.168C36.0942 4.09333 36.1408 4.03267 36.2062 3.986C36.2762 3.93467 36.3508 3.909 36.4302 3.909H37.4242L33.4692 13.093Z" fill="#7A827F"/>
</svg>
