<svg width="23" height="19" viewBox="0 0 23 19" fill="none" xmlns="http://www.w3.org/2000/svg">
<path d="M18.5 0.999939C16.0185 0.999939 14 3.01894 14 5.49994C14 5.77594 14.2235 5.99994 14.5 5.99994C14.7765 5.99994 15 5.77594 15 5.49994C15 3.56994 16.5705 1.99994 18.5 1.99994C20.4295 1.99994 22 3.56994 22 5.49994C22 7.42994 20.4295 8.99994 18.5 8.99994H0.5C0.224 8.99994 0 9.22394 0 9.49994C0 9.77594 0.224 9.99994 0.5 9.99994H18.5C20.9815 9.99994 23 7.98094 23 5.49994C23 3.01894 20.9815 0.999939 18.5 0.999939Z" fill="#3A423E"/>
<path d="M9 0C7.07 0 5.5 1.57 5.5 3.5C5.5 3.776 5.724 4 6 4C6.276 4 6.5 3.776 6.5 3.5C6.5 2.1215 7.6215 1 9 1C10.3785 1 11.5 2.1215 11.5 3.5C11.5 4.8785 10.3785 6 9 6H0.5C0.224 6 0 6.224 0 6.5C0 6.776 0.224 7 0.5 7H9C10.93 7 12.5 5.43 12.5 3.5C12.5 1.57 10.93 0 9 0Z" fill="#3A423E"/>
<path d="M17.5 12H0.5C0.224 12 0 12.224 0 12.5C0 12.776 0.224 13 0.5 13H17.5C18.8785 13 20 14.1215 20 15.5C20 16.8785 18.8785 18 17.5 18C16.1215 18 15 16.8785 15 15.5C15 15.224 14.7765 15 14.5 15C14.2235 15 14 15.224 14 15.5C14 17.43 15.5705 19 17.5 19C19.4295 19 21 17.43 21 15.5C21 13.57 19.4295 12 17.5 12Z" fill="#3A423E"/>
</svg>
